<?xml version="1.0" encoding="UTF-8"?>
<svg version="1.1" xmlns="http://www.w3.org/2000/svg" xmlns:xlink="http://www.w3.org/1999/xlink" xlink:href="/img/icons/icons.svg#svg-logo" viewBox="0 0 536.3 106.8">
<path d="M33 .2L.9 16.2c-.6.3-.9.8-.9 1.4v70.8c0 .6.3 1.1.9 1.4l32.1 16c1 .5 2.3-.2 2.3-1.4V1.6C35.2.4 34-.4 33 .2zM39.7 105.8l32.1-16c.5-.3.9-.8.9-1.4V54c0-.6-.3-1.1-.9-1.4l-32.1-16c-1-.5-2.3.2-2.3 1.4v66.5c.1 1.1 1.3 1.8 2.3 1.3zM129.7 34.8c10.8 0 16.6 4 16.6 14.1 0 6.6-2.1 9.8-6.4 12.2 4.7 1.8 7.8 5.2 7.8 12.6 0 11.1-6.7 15.4-17.3 15.4H109V34.8h20.7zm-11.8 7.6V58h11.7c5.4 0 7.8-2.7 7.8-8 0-5.2-2.7-7.5-8.1-7.5h-11.4zm0 23v16.1h12c5.5 0 8.7-1.7 8.7-8.3 0-6.2-4.6-7.9-8.9-7.9h-11.8zM156.6 49.5h8.6v4.8s6.7-4.4 13.5-5.6v8.6c-7.2 1.4-13.4 6.3-13.4 6.3v25.6h-8.6V49.5zM365.4 49.5h8.6v4.8s6.7-4.4 13.5-5.6v8.6c-7.2 1.4-13.4 6.3-13.4 6.3v25.6h-8.6V49.5zM218.4 69.1c0 13.2-4 20.9-17.7 20.9-13.6 0-17.7-7.8-17.7-20.9 0-12.9 4.4-20.5 17.7-20.5s17.7 7.6 17.7 20.5zm-8.7 0c0-9.2-2-13.2-9-13.2s-9 4-9 13.2 1.6 13.6 9 13.6 9-4.4 9-13.6zM232.3 49.5l6.3 32.3h1.6l7.5-31.5h8.9l7.5 31.5h1.6l6.2-32.3h8.6l-8.4 39.7h-13.7L252.2 62 246 89.2h-13.7l-8.4-39.7h8.4zM315.4 57.7s-9.4-1.3-14.1-1.3c-4.8 0-6.9 1.1-6.9 4.4 0 2.6 1.7 3.3 9.4 4.7 9.5 1.7 12.9 4 12.9 12 0 9.3-5.9 12.6-15.7 12.6-5.5 0-14.7-1.7-14.7-1.7l.3-7.2s9.5 1.3 13.6 1.3c5.7 0 7.9-1.2 7.9-4.7 0-2.8-1.3-3.6-9.2-4.9-8.7-1.4-13.2-3.3-13.2-11.7 0-9 7-12.3 14.8-12.3 5.8 0 14.9 1.7 14.9 1.7v7.1zM355.6 81.8l.2 6.4s-9 1.8-16 1.8c-11.9 0-16.5-6.3-16.5-20.3 0-14.5 6.3-21.1 17.2-21.1 11.1 0 16.7 5.8 16.7 18.2l-.6 6.2H332c.1 6.3 2.5 9.5 9 9.5 6.2 0 14.6-.7 14.6-.7zm-7-15.5c0-7.9-2.4-10.6-8.2-10.6-5.9 0-8.5 2.9-8.6 10.6h16.8zM420.5 54.3S412 53 406.8 53c-4.9 0-9.4 1.3-9.4 6.7 0 4.1 2 5.3 10.6 6.7 10.2 1.7 14 3.5 14 11.1 0 9.3-5.8 12.3-15.3 12.3-4.8 0-13.6-1.4-13.6-1.4l.3-4.2s8.9 1.3 12.9 1.3c6.8 0 10.8-1.6 10.8-7.8 0-4.8-2.4-5.8-11.3-7.1-9.1-1.4-13.3-3.1-13.3-10.8 0-8.6 7.1-11.2 14-11.2 6 0 14 1.3 14 1.3v4.4zM432 49.5L442.5 85h2.9L456 49.5h4.8l-16.9 57.3h-4.8l5.1-17.7h-5.5L427 49.4h5zM468.9 89.2V49.5h4.7v2.9s6.7-3.7 12.9-3.7c10.9 0 13.3 5.1 13.3 19.6v20.9H495V68.5c0-11.7-1.3-15.6-9.2-15.6-6.2 0-12.2 3.3-12.2 3.3V89h-4.7zM536.2 49.7l-.2 4s-6.3-.8-9.3-.8c-9.5 0-12.3 4.2-12.3 15.6 0 12.5 1.9 17.1 12.3 17.1 3 0 9.4-.7 9.4-.7l.2 4s-7.1 1-10.5 1c-12.9 0-16.3-5.7-16.3-21.3 0-14.5 4.6-19.9 16.4-19.9 3.4 0 10.3 1 10.3 1z"></path>
</svg>
