<?xml version='1.0' encoding='utf-8'?>
<svg xmlns="http://www.w3.org/2000/svg" width="91.44mm" height="91.44mm" version="1.1" style="shape-rendering:geometricPrecision; text-rendering:geometricPrecision; image-rendering:optimizeQuality; fill-rule:evenodd; clip-rule:evenodd" viewBox="0 0 9144 9144"> <defs> <style type="text/css">  .fil0 {fill:#F0F0F0} .fil1 {fill:#011627;fill-rule:nonzero}  </style> </defs> <g id="Layer_x0020_1"> <metadata id="CorelCorpID_0Corel-Layer"/> <g id="_2744590911088"> <polygon class="fil0" points="0,0 9144,0 9144,9144 0,9144 "/> <path class="fil1" d="M3603 6051c170,108 348,185 531,232 188,50 383,68 577,56 512,-30 964,-264 1280,-620 317,-355 498,-831 468,-1344l-1 -4 0 -1c-31,-510 -265,-960 -619,-1275 -356,-316 -832,-497 -1344,-468l-5 1 -1 0c-509,31 -959,265 -1275,620 -316,355 -497,831 -467,1344l0 5c11,176 44,341 98,497 57,162 135,314 234,455 17,24 20,55 9,80l-327 799 759 -382c27,-13 59,-11 83,5zm1380 -484c-265,-15 -623,-266 -911,-576 -289,-311 -513,-688 -507,-952 -2,-57 6,-118 22,-182 16,-64 40,-130 73,-199 11,-26 23,-50 35,-73 11,-21 25,-45 41,-72 10,-16 25,-28 41,-35 99,-49 175,-71 249,-60 79,12 143,57 216,145 35,41 68,89 100,143 30,51 58,107 84,166 27,51 31,110 11,173 -16,53 -48,109 -96,166 -14,16 -32,26 -51,29 -9,3 -17,7 -22,12 -9,8 -17,22 -25,42 -1,3 -2,6 -3,8 -3,5 8,5 16,23 34,79 119,192 217,298 97,105 203,199 279,239 17,9 16,20 21,18 3,-2 6,-3 8,-4 21,-6 35,-13 44,-20 6,-6 10,-14 14,-25 6,-19 17,-34 32,-44l0 -1c59,-43 117,-71 171,-83 63,-13 119,-6 167,23 59,31 113,63 161,97 50,34 95,71 133,109 82,79 122,146 128,225 5,75 -23,149 -80,245 -9,16 -22,27 -36,34l0 1c-23,11 -48,23 -75,34 -25,11 -50,21 -73,30 -71,27 -139,46 -202,57 -65,11 -127,14 -182,9zm-782 -696c262,282 576,509 793,520l5 0c40,5 86,2 136,-7 53,-9 110,-25 170,-47 22,-9 43,-17 65,-27 13,-6 27,-12 43,-20 30,-53 44,-91 42,-120 -2,-31 -26,-64 -74,-112 -31,-30 -69,-61 -112,-91 -43,-30 -91,-59 -143,-85l0 -1c-3,-1 -6,-3 -9,-5 -7,-5 -20,-5 -37,-1 -25,5 -53,19 -85,40 -13,28 -31,52 -54,72 -28,26 -63,43 -107,57 -47,17 -103,6 -164,-26 -94,-49 -217,-157 -327,-276 -109,-118 -206,-249 -249,-347 -28,-65 -35,-124 -12,-170 17,-41 37,-74 63,-99 23,-22 48,-37 77,-48 24,-31 40,-60 47,-84 6,-17 6,-30 2,-38 -2,-3 -3,-6 -5,-9 -23,-56 -49,-107 -75,-152 -27,-44 -55,-84 -84,-119 -44,-53 -76,-79 -107,-84 -30,-4 -70,8 -126,34 -7,13 -15,27 -23,42 -12,23 -23,44 -32,63 -27,59 -48,116 -61,168 -13,51 -19,96 -17,137l0 4c-7,216 197,548 460,831zm-110 1576c-185,-48 -365,-124 -538,-229l-914 460c-22,12 -49,14 -74,4 -43,-17 -63,-67 -45,-110l395 -965c-96,-143 -173,-296 -229,-458 -59,-170 -96,-351 -107,-542 -1,-3 -1,-7 -1,-11 -31,-557 166,-1074 510,-1461 344,-386 834,-642 1391,-676 3,0 7,-1 11,-1l0 1c557,-32 1075,165 1461,510 386,343 642,834 676,1390 0,4 1,8 1,11l0 1c31,557 -166,1074 -510,1461 -345,387 -838,643 -1398,676 -211,12 -422,-7 -629,-61zm2368 -2072zm-3712 217z"/> </g> </g> </svg>