<?xml version="1.0" ?><!DOCTYPE svg  PUBLIC '-//W3C//DTD SVG 1.1//EN'  'http://www.w3.org/Graphics/SVG/1.1/DTD/svg11.dtd'><svg height="512px" style="enable-background:new 0 0 512 512;" version="1.1" viewBox="0 0 512 512" width="512px" xml:space="preserve" xmlns="http://www.w3.org/2000/svg" xmlns:xlink="http://www.w3.org/1999/xlink"><g id="_x36_51_x2C__Code_x2C__coding_x2C__computer_x2C__monoblock_x2C__retro"><g><path d="M290.368,36.031h-99.392c-3.271,0-6.254,1.34-8.423,3.521    c-2.169,2.154-3.51,5.152-3.51,8.438v31.517v0.079v23.923v0.077v91.27h123.26v-91.27v-0.077V79.587v-0.079V47.991    c0-3.286-1.34-6.284-3.498-8.438C296.64,37.371,293.643,36.031,290.368,36.031 M209.956,406.362h79.915    c1.772,0,3.232,1.445,3.232,3.233v13.459c0,1.786-1.46,3.232-3.232,3.232h-79.915c-1.772,0-3.232-1.446-3.232-3.232v-13.459    C206.723,407.808,208.183,406.362,209.956,406.362z M286.634,412.828h-73.443v6.993h73.443V412.828z M191.267,412.828h-7.412    v6.993h7.412V412.828z M180.62,406.362h13.88c1.786,0,3.232,1.445,3.232,3.233v13.459c0,1.786-1.446,3.232-3.232,3.232h-13.88    c-1.787,0-3.232-1.446-3.232-3.232v-13.459C177.387,407.808,178.833,406.362,180.62,406.362z M162.247,412.828h-7.416v6.993h7.416    V412.828z M151.6,406.362h13.88c1.786,0,3.232,1.445,3.232,3.233v13.459c0,1.786-1.446,3.232-3.232,3.232H151.6    c-1.787,0-3.232-1.446-3.232-3.232v-13.459C148.367,407.808,149.813,406.362,151.6,406.362z M133.224,412.828h-7.412v6.993h7.412    V412.828z M122.579,406.362h13.88c1.786,0,3.232,1.445,3.232,3.233v13.459c0,1.786-1.446,3.232-3.232,3.232h-13.88    c-1.79,0-3.235-1.446-3.235-3.232v-13.459C119.344,407.808,120.79,406.362,122.579,406.362z M104.204,412.828h-7.412v6.993h7.412    V412.828z M93.559,406.362h13.877c1.79,0,3.235,1.445,3.235,3.233v13.459c0,1.786-1.446,3.232-3.235,3.232H93.559    c-1.79,0-3.235-1.446-3.235-3.232v-13.459C90.324,407.808,91.77,406.362,93.559,406.362z M278.331,377.919h-7.416v6.993h7.416    V377.919z M267.683,371.453h13.881c1.786,0,3.231,1.445,3.231,3.234v13.459c0,1.785-1.445,3.231-3.231,3.231h-13.881    c-1.775,0-3.232-1.446-3.232-3.231v-13.459C264.45,372.898,265.907,371.453,267.683,371.453z M249.308,377.919h-7.412v6.993h7.412    V377.919z M238.663,371.453h13.88c1.787,0,3.232,1.445,3.232,3.234v13.459c0,1.785-1.446,3.231-3.232,3.231h-13.88    c-1.776,0-3.236-1.446-3.236-3.231v-13.459C235.427,372.898,236.887,371.453,238.663,371.453z M220.287,377.919h-7.412v6.993    h7.412V377.919z M209.643,371.453h13.876c1.79,0,3.236,1.445,3.236,3.234v13.459c0,1.785-1.446,3.231-3.236,3.231h-13.876    c-1.776,0-3.236-1.446-3.236-3.231v-13.459C206.407,372.898,207.867,371.453,209.643,371.453z M191.267,377.919h-7.412v6.993    h7.412V377.919z M180.62,371.453h13.88c1.786,0,3.232,1.445,3.232,3.234v13.459c0,1.785-1.446,3.231-3.232,3.231h-13.88    c-1.787,0-3.232-1.446-3.232-3.231v-13.459C177.387,372.898,178.833,371.453,180.62,371.453z M162.247,377.919h-7.416v6.993h7.416    V377.919z M151.6,371.453h13.88c1.786,0,3.232,1.445,3.232,3.234v13.459c0,1.785-1.446,3.231-3.232,3.231H151.6    c-1.787,0-3.232-1.446-3.232-3.231v-13.459C148.367,372.898,149.813,371.453,151.6,371.453z M133.224,377.919h-7.412v6.993h7.412    V377.919z M122.579,371.453h13.88c1.786,0,3.232,1.445,3.232,3.234v13.459c0,1.785-1.446,3.231-3.232,3.231h-13.88    c-1.79,0-3.235-1.446-3.235-3.231v-13.459C119.344,372.898,120.79,371.453,122.579,371.453z M104.204,377.919h-7.412v6.993h7.412    V377.919z M278.331,342.694h-7.416v6.993h7.416V342.694z M267.683,336.229h13.881c1.786,0,3.231,1.445,3.231,3.233v13.459    c0,1.786-1.445,3.232-3.231,3.232h-13.881c-1.775,0-3.232-1.446-3.232-3.232v-13.459    C264.45,337.674,265.907,336.229,267.683,336.229z M249.308,342.694h-7.412v6.993h7.412V342.694z M238.663,336.229h13.88    c1.787,0,3.232,1.445,3.232,3.233v13.459c0,1.786-1.446,3.232-3.232,3.232h-13.88c-1.776,0-3.236-1.446-3.236-3.232v-13.459    C235.427,337.674,236.887,336.229,238.663,336.229z M220.287,342.694h-7.412v6.993h7.412V342.694z M209.643,336.229h13.876    c1.79,0,3.236,1.445,3.236,3.233v13.459c0,1.786-1.446,3.232-3.236,3.232h-13.876c-1.776,0-3.236-1.446-3.236-3.232v-13.459    C206.407,337.674,207.867,336.229,209.643,336.229z M191.267,342.694h-7.412v6.993h7.412V342.694z M180.62,336.229h13.88    c1.786,0,3.232,1.445,3.232,3.233v13.459c0,1.786-1.446,3.232-3.232,3.232h-13.88c-1.787,0-3.232-1.446-3.232-3.232v-13.459    C177.387,337.674,178.833,336.229,180.62,336.229z M162.247,342.694h-7.416v6.993h7.416V342.694z M151.6,336.229h13.88    c1.786,0,3.232,1.445,3.232,3.233v13.459c0,1.786-1.446,3.232-3.232,3.232H151.6c-1.787,0-3.232-1.446-3.232-3.232v-13.459    C148.367,337.674,149.813,336.229,151.6,336.229z M133.224,342.694h-7.412v6.993h7.412V342.694z M122.579,336.229h13.88    c1.786,0,3.232,1.445,3.232,3.233v13.459c0,1.786-1.446,3.232-3.232,3.232h-13.88c-1.79,0-3.235-1.446-3.235-3.232v-13.459    C119.344,337.674,120.79,336.229,122.579,336.229z M104.204,342.694h-7.412v6.993h7.412V342.694z M93.559,336.229h13.877    c1.79,0,3.235,1.445,3.235,3.233v13.459c0,1.786-1.446,3.232-3.235,3.232H93.559c-1.79,0-3.235-1.446-3.235-3.232v-13.459    C90.324,337.674,91.77,336.229,93.559,336.229z M307.771,377.919h-7.415v6.993h7.415V377.919z M297.124,371.453h13.88    c1.787,0,3.232,1.445,3.232,3.234v13.459c0,1.785-1.445,3.231-3.232,3.231h-13.88c-1.775,0-3.232-1.446-3.232-3.231v-13.459    C293.892,372.898,295.349,371.453,297.124,371.453z M307.771,342.694h-7.415v6.993h7.415V342.694z M297.124,336.229h13.88    c1.787,0,3.232,1.445,3.232,3.233v13.459c0,1.786-1.445,3.232-3.232,3.232h-13.88c-1.775,0-3.232-1.446-3.232-3.232v-13.459    C293.892,337.674,295.349,336.229,297.124,336.229z M337.213,377.919h-7.415v6.993h7.415V377.919z M326.565,371.453h13.88    c1.787,0,3.232,1.445,3.232,3.234v13.459c0,1.785-1.445,3.231-3.232,3.231h-13.88c-1.772,0-3.231-1.446-3.231-3.231v-13.459    C323.334,372.898,324.793,371.453,326.565,371.453z M337.213,342.694h-7.415v6.993h7.415V342.694z M326.565,336.229h13.88    c1.787,0,3.232,1.445,3.232,3.233v13.459c0,1.786-1.445,3.232-3.232,3.232h-13.88c-1.772,0-3.231-1.446-3.231-3.232v-13.459    C323.334,337.674,324.793,336.229,326.565,336.229z M366.654,377.919h-7.412v6.993h7.412V377.919z M356.007,371.453h13.88    c1.787,0,3.232,1.445,3.232,3.234v13.459c0,1.785-1.445,3.231-3.232,3.231h-13.88c-1.772,0-3.232-1.446-3.232-3.231v-13.459    C352.774,372.898,354.234,371.453,356.007,371.453z M366.654,342.694h-7.412v6.993h7.412V342.694z M356.007,336.229h13.88    c1.787,0,3.232,1.445,3.232,3.233v13.459c0,1.786-1.445,3.232-3.232,3.232h-13.88c-1.772,0-3.232-1.446-3.232-3.232v-13.459    C352.774,337.674,354.234,336.229,356.007,336.229z M337.213,411.987h-7.415v6.993h7.415V411.987z M326.565,405.521h13.88    c1.787,0,3.232,1.445,3.232,3.232v13.459c0,1.788-1.445,3.233-3.232,3.233h-13.88c-1.772,0-3.231-1.445-3.231-3.233v-13.459    C323.334,406.967,324.793,405.521,326.565,405.521z M366.654,411.987h-7.412v6.993h7.412V411.987z M356.007,405.521h13.88    c1.787,0,3.232,1.445,3.232,3.232v13.459c0,1.788-1.445,3.233-3.232,3.233h-13.88c-1.772,0-3.232-1.445-3.232-3.233v-13.459    C352.774,406.967,354.234,405.521,356.007,405.521z M240.674,251.742h123.994V106.82H308.77v88.036h18.652    c1.786,0,3.232,1.446,3.232,3.232c0,1.788-1.446,3.233-3.232,3.233H305.8h-0.264H175.812h-0.253h-21.632    c-1.776,0-3.232-1.445-3.232-3.233c0-1.786,1.457-3.232,3.232-3.232h18.649V106.82H116.69v144.922H240.674z M411.105,258.209    h-21.924H367.98h-0.091H113.458h-0.095H92.166H70.242v15.246c0,4.205,1.709,8.018,4.468,10.777    c2.772,2.761,6.583,4.494,10.792,4.494h310.345c4.19,0,8.016-1.733,10.777-4.494c2.772-2.76,4.481-6.572,4.481-10.777V258.209z     M232.999,265.778c1.958-1.971,4.678-3.18,7.675-3.18s5.717,1.209,7.689,3.18c1.944,1.946,3.18,4.68,3.18,7.677    c0,2.864-1.13,5.494-2.969,7.438l-0.21,0.237c-1.972,1.971-4.692,3.182-7.689,3.182s-5.717-1.211-7.675-3.182    c-1.958-1.946-3.193-4.68-3.193-7.676C229.805,270.458,231.041,267.725,232.999,265.778z M193.987,108.898    c-1.776,0-3.232-1.445-3.232-3.234c0-1.787,1.457-3.234,3.232-3.234h93.37c1.775,0,3.235,1.447,3.235,3.234    c0,1.789-1.46,3.234-3.235,3.234H193.987z M226.282,127.193c1.221,0,2.495-0.787,2.906-1.814c1.063-2.154-0.568-4.652-2.906-4.652    h-6.468c-1.207,0-2.495,0.789-2.892,1.813c-1.078,2.156,0.554,4.653,2.892,4.653H226.282z M252.122,127.193    c1.207,0,2.495-0.787,2.892-1.814c1.078-2.154-0.554-4.652-2.892-4.652h-6.468c-1.207,0-2.495,0.789-2.892,1.813    c-1.078,2.156,0.555,4.653,2.892,4.653H252.122z M277.948,127.193c1.222,0,2.499-0.787,2.906-1.814    c1.077-2.154-0.565-4.652-2.906-4.652h-6.454c-1.222,0-2.495,0.789-2.906,1.813c-1.077,2.156,0.565,4.653,2.906,4.653H277.948z     M193.987,120.727c-1.222,0-2.499,0.789-2.906,1.813c-1.077,2.156,0.565,4.653,2.906,4.653h6.454c1.222,0,2.496-0.787,2.906-1.814    c1.077-2.154-0.565-4.652-2.906-4.652H193.987z M242.671,145.488c-1.776,0-3.232-1.443-3.232-3.232    c0-1.762,1.457-3.234,3.232-3.234h44.687c1.775,0,3.235,1.473,3.235,3.234c0,1.789-1.46,3.232-3.235,3.232H242.671z     M193.987,163.785c-1.776,0-3.232-1.445-3.232-3.207c0-1.787,1.457-3.232,3.232-3.232h36.053c1.787,0,3.232,1.445,3.232,3.232    c0,1.762-1.446,3.207-3.232,3.207H193.987z M193.987,182.106c-1.776,0-3.232-1.472-3.232-3.231c0-1.789,1.457-3.234,3.232-3.234    h93.37c1.775,0,3.235,1.445,3.235,3.234c0,1.76-1.46,3.231-3.235,3.231H193.987z M249.297,163.785    c-1.79,0-3.236-1.445-3.236-3.207c0-1.787,1.446-3.232,3.236-3.232h20.173c1.789,0,3.235,1.445,3.235,3.232    c0,1.762-1.446,3.207-3.235,3.207H249.297z M193.987,145.488c-1.776,0-3.232-1.443-3.232-3.232c0-1.762,1.457-3.234,3.232-3.234    h27.865c1.772,0,3.232,1.473,3.232,3.234c0,1.789-1.46,3.232-3.232,3.232H193.987z M222.576,54.063    c1.26-1.262,3.309-1.262,4.548,0c1.26,1.262,1.246,3.313,0,4.549l-10.03,10.014l10.03,10.016c1.246,1.262,1.26,3.313,0,4.575    c-1.239,1.262-3.289,1.262-4.548,0l-12.199-12.197l-0.053-0.053l-0.053-0.053h-0.01l-0.042-0.052l-0.025-0.027l-0.039-0.025    l-0.014-0.027l-0.039-0.053h-0.014l-0.039-0.053l-0.014-0.025l-0.039-0.026l-0.014-0.026l-0.028-0.053h-0.025l-0.028-0.053    l-0.011-0.026l-0.042-0.053v-0.026l-0.039-0.026l-0.014-0.026l-0.024-0.053l-0.014-0.025l-0.024-0.053h-0.014l-0.028-0.053    l-0.011-0.027l-0.014-0.053l-0.024-0.025l-0.014-0.053h-0.014l-0.024-0.053v-0.026l-0.028-0.053v-0.024l-0.025-0.053l-0.014-0.026    l-0.014-0.053l0,0l-0.025-0.052l-0.014-0.027l-0.014-0.053v-0.025l-0.024-0.053v-0.027l-0.014-0.053l-0.014-0.025v-0.053    l-0.014-0.026l-0.01-0.053V69.23v-0.053h-0.014l-0.014-0.078l0,0v-0.08l0,0l-0.014-0.053v-0.025l-0.011-0.053v-0.027V68.81v-0.026    V68.73v-0.026v-0.053v-0.026v-0.053v-0.025v-0.052v-0.026v-0.053v-0.025l0.011-0.053v-0.027l0.014-0.053v-0.025V68.18v-0.026    l0.014-0.053l0.014-0.026v-0.053l0,0l0.01-0.079h0.014V67.89l0.014-0.026l0.014-0.053v-0.025l0.024-0.053v-0.027l0.014-0.053    l0.014-0.025l0.025-0.053v-0.026l0.014-0.053h0.014l0.025-0.053v-0.026l0.028-0.053v-0.026l0.024-0.052l0.014-0.027l0.014-0.053    h0.024l0.014-0.051l0.011-0.025l0.028-0.053l0.014-0.027l0.024-0.053h0.014l0.024-0.053l0.014-0.025l0.039-0.053l0,0l0.042-0.053    l0.011-0.026l0.028-0.053h0.025l0.028-0.053l0.014-0.026l0.039-0.053h0.014l0.039-0.053l0.014-0.025l0.039-0.027l0.014-0.025    l0.039-0.053h0.025l0.042-0.053l0.01-0.026l0.053-0.026l0.053-0.053L222.576,54.063z M254.224,58.611    c-1.25-1.236-1.263-3.287,0-4.549c1.25-1.262,3.285-1.262,4.548,0l12.195,12.197l0.053,0.053l0.053,0.026l0.028,0.026l0.024,0.053    h0.028l0.038,0.053l0.014,0.025l0.039,0.027l0.014,0.025l0.039,0.053h0.014l0.039,0.053l0.014,0.026l0.024,0.053h0.028    l0.024,0.053l0.015,0.026l0.038,0.053h0.014l0.025,0.053l0.014,0.025l0.028,0.053h0.011l0.027,0.053l0.015,0.027l0.024,0.053    l0.014,0.025l0.015,0.051h0.024l0.014,0.053l0.011,0.027l0.028,0.052v0.026l0.024,0.053l0.014,0.026l0.015,0.053h0.014    l0.011,0.053l0.014,0.026l0.014,0.053l0.015,0.025l0.011,0.053v0.027l0.027,0.053v0.025l0.015,0.053l0.011,0.026v0.053h0.014    l0.014,0.079l0,0v0.053l0.015,0.026l0.01,0.053v0.026v0.053l0.015,0.025l0.014,0.053v0.027v0.053v0.025v0.053v0.026v0.052v0.025    v0.053v0.026v0.053v0.026v0.053v0.026v0.052v0.027v0.053v0.025l-0.014,0.053h-0.015v0.08l0,0l-0.01,0.078h-0.015v0.053v0.026    l-0.014,0.053l-0.014,0.026v0.053l-0.011,0.025l-0.015,0.053v0.027l-0.027,0.053v0.025l-0.011,0.053l-0.015,0.027l-0.014,0.052    h-0.014l-0.011,0.053l-0.014,0.026l-0.015,0.053l-0.014,0.024l-0.024,0.053v0.026l-0.028,0.053h-0.011l-0.014,0.053l-0.024,0.025    l-0.015,0.053l-0.014,0.027l-0.024,0.053h-0.015l-0.027,0.053l-0.011,0.025l-0.028,0.053l-0.014,0.026l-0.025,0.026l-0.014,0.026    l-0.038,0.053l-0.015,0.026l-0.024,0.053h-0.028l-0.024,0.053l-0.014,0.026l-0.039,0.026l-0.014,0.025l-0.039,0.053h-0.014    l-0.039,0.053l-0.014,0.027l-0.038,0.025l-0.028,0.027l-0.024,0.052h-0.028l-0.053,0.053l-0.053,0.053l-12.195,12.197    c-1.264,1.262-3.299,1.262-4.548,0c-1.263-1.262-1.25-3.313,0-4.575l10.03-10.016L254.224,58.611z M230.988,49.777    c-0.555-1.682,0.365-3.521,2.049-4.074c1.681-0.551,3.496,0.368,4.061,2.051l13.249,39.745c0.565,1.683-0.354,3.497-2.036,4.048    c-1.685,0.58-3.509-0.34-4.064-2.022L230.988,49.777z M455.754,322.559V152.613h-69.885v99.129h-14.747V103.587    c0-1.786-1.446-3.232-3.232-3.232h-59.12V82.821h77.1v63.036h73.419c1.947,0,3.523,1.524,3.523,3.365v173.257    c5.98,0.737,11.37,3.497,15.431,7.571c4.784,4.758,7.757,11.382,7.757,18.638v36.302c0,7.281-2.973,13.881-7.771,18.664    c-4.77,4.785-11.381,7.754-18.649,7.754c-7.282,0-13.88-2.969-18.678-7.754c-4.783-4.783-7.742-11.383-7.742-18.664v-26.366    h23.188v25.263c0,1.787,1.446,3.232,3.232,3.232c1.772,0,3.232-1.445,3.232-3.232v-25.263h12.592c1.786,0,3.232-1.471,3.232-3.232    c0-1.788-1.446-3.233-3.232-3.233h-15.747h-0.077h-0.091h-26.329v-3.47c0-7.256,2.973-13.88,7.757-18.663    C444.847,326.108,450.009,323.4,455.754,322.559z M82.399,384.228h-52.72c-2.025,0-3.678-1.444-3.678-3.232V179.006    c0-1.788,1.653-3.234,3.678-3.234h65.796v-92.95h77.1v17.533h-59.118c-1.79,0-3.236,1.446-3.236,3.232v148.155H95.476v-69.53    h-62.09v195.55h49.014v-48.211h316.55v102.889H82.399V384.228z M90.324,380.416c0.052,0.185,0.066,0.369,0.066,0.579    c0,0.211-0.014,0.396-0.066,0.577v6.574c0,1.785,1.446,3.231,3.235,3.231h13.877c1.79,0,3.235-1.446,3.235-3.231v-13.459    c0-1.789-1.446-3.234-3.235-3.234H93.559c-1.79,0-3.235,1.445-3.235,3.234V380.416z M429.113,456.044    c1.786,0,3.232,1.446,3.232,3.234c0,1.786-1.446,3.232-3.232,3.232H164.507c-1.79,0-3.236-1.446-3.236-3.232    c0-1.788,1.446-3.234,3.236-3.234H429.113z M274.176,469.503c1.775,0,3.222,1.446,3.222,3.234s-1.446,3.232-3.222,3.232H91.061    c-1.786,0-3.232-1.444-3.232-3.232s1.446-3.234,3.232-3.234H274.176z M72.316,469.503c1.776,0,3.236,1.446,3.236,3.234    s-1.46,3.232-3.236,3.232H49.42c-1.787,0-3.232-1.444-3.232-3.232s1.446-3.234,3.232-3.234H72.316z M439.547,469.084    c1.775,0,3.235,1.471,3.235,3.232c0,1.788-1.46,3.233-3.235,3.233h-86.772c-1.786,0-3.232-1.445-3.232-3.233    c0-1.762,1.446-3.232,3.232-3.232H439.547z M240.674,269.064c-1.21,0-2.313,0.499-3.116,1.289    c-0.79,0.787-1.288,1.891-1.288,3.102c0,1.209,0.499,2.313,1.288,3.102c0.804,0.815,1.906,1.287,3.116,1.287    c1.222,0,2.327-0.472,3.113-1.287l0.158-0.133c0.698-0.787,1.13-1.813,1.13-2.969c0-1.211-0.498-2.314-1.288-3.102    C243.001,269.563,241.896,269.064,240.674,269.064z" style="fill-rule:evenodd;clip-rule:evenodd;"/></g></g><g id="Layer_1"/></svg>