<svg xmlns="http://www.w3.org/2000/svg" viewBox="0 0 333334 247552" shape-rendering="geometricPrecision" text-rendering="geometricPrecision" image-rendering="optimizeQuality" fill-rule="evenodd" clip-rule="evenodd"><path d="M40278 123317h18041l6487 34322 9507-34322h17898l9579 34379 6529-34379h17956l-13560 61513H94072l-10796-38732-10725 38732H53937l-13660-61513zM22565 0h288203c12411 0 22565 10155 22565 22565v202422c0 12410-10156 22565-22565 22565H22565C10155 247552 0 237398 0 224987V22565C0 10154 10154 0 22565 0zm297447 63181H14340v164005c0 1730 673 3267 1826 4421 1153 1153 2691 1826 4420 1826h293084c1730 0 3267-673 4420-1826 1154-1154 1826-2691 1826-4421V63181h96zm-30720-37815c6155 0 11145 4990 11145 11145s-4990 11145-11145 11145-11145-4990-11145-11145 4990-11145 11145-11145zm-75539 0c6155 0 11145 4990 11145 11145s-4990 11145-11145 11145-11145-4990-11145-11145 4990-11145 11145-11145zm37770 0c6155 0 11145 4990 11145 11145s-4990 11145-11145 11145-11145-4990-11145-11145 4990-11145 11145-11145zm-39110 97951h18042l6487 34322 9507-34322h17898l9579 34379 6529-34379h17956l-13560 61513h-18643l-10796-38732-10725 38732h-18614l-13660-61513zm-86068 0h18041l6487 34322 9507-34322h17898l9579 34379 6529-34379h17956l-13560 61513h-18643l-10796-38732-10725 38732h-18614l-13660-61513z"/></svg>