<?xml version="1.0" ?><svg id="Layer_1" style="enable-background:new 0 0 512 512;" version="1.1" viewBox="0 0 512 512" xml:space="preserve" xmlns="http://www.w3.org/2000/svg" xmlns:xlink="http://www.w3.org/1999/xlink"><g id="XMLID_4256_"><polygon id="XMLID_4258_" points="339.7,6 339.7,112.8 448.3,112.8  "/><path d="M203.2,310h-18.9v30.9h18.9c5.4,0,9.5-1.4,12.2-4.3c2.7-2.9,4.1-6.5,4.1-11c0-4.4-1.4-8.2-4.1-11.1   C212.7,311.5,208.6,310,203.2,310z" id="XMLID_4262_"/><path d="M367.6,338.6L367.6,338.6c0-49.1-39.8-88.9-88.9-88.9h-215v177.8h215   C327.8,427.5,367.6,387.7,367.6,338.6z M151.4,359.5c0,8.4-2.6,15.1-7.7,20.1c-5.1,5-11.7,7.4-19.9,7.4c-8.6,0-15.4-2.2-20.5-6.6   c-5-4.4-7.5-10.8-7.3-19.3l0.1-0.4h14.1c0,5,1.2,8.6,3.6,11c2.4,2.4,5.7,3.6,9.9,3.6c3.8,0,6.9-1.4,9.3-4.3   c2.4-2.9,3.6-6.7,3.6-11.5v-61.2h14.5V359.5z M225.9,345.2c-5.5,4.9-13,7.4-22.7,7.4h-18.9v33.2h-14.6v-87.5h33.5   c9.7,0,17.2,2.5,22.7,7.5c5.5,5,8.2,11.5,8.2,19.7C234.1,333.7,231.3,340.2,225.9,345.2z M245.4,351.2v-18.3   c0-10.6,3.2-19.2,9.7-25.9c6.4-6.7,14.7-10,24.9-10c10.2,0,18.1,2.6,23.8,7.7c5.7,5.1,8.5,11.8,8.3,20.1l-0.2,0.4H298   c0-4.9-1.5-8.9-4.6-11.9c-3.1-3-7.5-4.5-13.2-4.5c-6,0-10.9,2.3-14.6,6.8c-3.7,4.5-5.6,10.3-5.6,17.2v18.4c0,7.1,1.9,12.8,5.8,17.4   c3.9,4.5,8.9,6.8,15.1,6.8c4.7,0,8.4-0.5,11.1-1.6c2.7-1.1,4.8-2.4,6.2-3.9v-18.1h-18.3v-10.9h32.9v33c-2.4,3.4-6.2,6.4-11.5,9.1   c-5.3,2.7-12.1,4-20.4,4c-10.3,0-18.8-3.3-25.5-10C248.8,370.4,245.4,361.7,245.4,351.2z" id="XMLID_4266_"/><path d="M327.7,6.3H81v231.3h197.7c55.6,0,100.9,45.3,100.9,100.9c0,55.6-45.3,100.9-100.9,100.9H81V506h366.6   l0.6-381.2H327.7V6.3z" id="XMLID_4285_"/></g></svg>