<?xml version="1.0" ?><svg enable-background="new 0 0 184 228.0033" id="android" version="1.1" viewBox="0 0 184 228.0033" xml:space="preserve" xmlns="http://www.w3.org/2000/svg" xmlns:xlink="http://www.w3.org/1999/xlink"><g><path d="M119.442,22.7081l9.9876-16.6464c1.1368-1.8944,0.5236-4.3512-1.3712-5.488c-1.8984-1.1408-4.3512-0.5276-5.488,1.3712   l-10.542,17.5692C105.7536,17.2817,99.0312,16.0033,92,16.0033s-13.7536,1.2784-20.0284,3.5108L61.4296,1.9449   c-1.1368-1.8988-3.5936-2.508-5.488-1.3712c-1.8948,1.1368-2.508,3.5936-1.3712,5.488l9.9876,16.6464   C45.2516,32.6905,32,52.8093,32,76.0033c0,2.2108,1.7912,4,4,4h112c2.2088,0,4-1.7892,4-4   C152,52.8093,138.7484,32.6905,119.442,22.7081z M40.1524,72.0033c2.0488-26.8124,24.5216-48,51.8476-48   s49.7988,21.1876,51.8476,48H40.1524z"/><path d="M119.9112,45.4549h-5.274c-1.4564,0-2.6372,1.1792-2.6372,2.6372v5.274c0,1.4576,1.1808,2.6372,2.6372,2.6372h5.274   c1.4568,0,2.6372-1.1796,2.6372-2.6372v-5.274C122.5484,46.6341,121.368,45.4549,119.9112,45.4549z"/><path d="M69.3628,45.4549h-5.274c-1.4568,0-2.6372,1.1792-2.6372,2.6372v5.274c0,1.4576,1.1804,2.6372,2.6372,2.6372h5.274   c1.4564,0,2.6372-1.1796,2.6372-2.6372v-5.274C72,46.6341,70.8192,45.4549,69.3628,45.4549z"/><path d="M148,84.0033H36c-2.2088,0-4,1.7892-4,4v80.6836c0,10.6524,8.6756,19.3164,19.338,19.3164H56v24.0236   c0,8.8084,7.1776,15.9764,16,15.9764s16-7.168,16-15.9764v-24.0236h8v24.0236c0,8.8084,7.1776,15.9764,16,15.9764   s16-7.168,16-15.9764v-24.0236h4.662c10.6624,0,19.338-8.664,19.338-19.3164V88.0033C152,85.7925,150.2088,84.0033,148,84.0033z    M144,168.6869c0,6.2384-5.086,11.3164-11.338,11.3164H124c-2.2088,0-4,1.7892-4,4v28.0236c0,4.3984-3.588,7.9764-8,7.9764   s-8-3.578-8-7.9764v-28.0236c0-2.2108-1.7912-4-4-4H84c-2.2088,0-4,1.7892-4,4v28.0236c0,4.3984-3.588,7.9764-8,7.9764   s-8-3.578-8-7.9764v-28.0236c0-2.2108-1.7912-4-4-4h-8.662c-6.252,0-11.338-5.078-11.338-11.3164V92.0033h104V168.6869z"/><path d="M170,84.0033c-7.7188,0-14,6.2892-14,14.0156v55.9688c0,7.7264,6.2812,14.0156,14,14.0156s14-6.2892,14-14.0156V98.0189   C184,90.2925,177.7188,84.0033,170,84.0033z M176,153.9877c0,3.3164-2.6916,6.0156-6,6.0156s-6-2.6992-6-6.0156V98.0189   c0-3.3164,2.6916-6.0156,6-6.0156s6,2.6992,6,6.0156V153.9877z"/><path d="M14,84.0033c-7.7188,0-14,6.2892-14,14.0156v55.9688c0,7.7264,6.2812,14.0156,14,14.0156s14-6.2892,14-14.0156V98.0189   C28,90.2925,21.7188,84.0033,14,84.0033z M20,153.9877c0,3.3164-2.6916,6.0156-6,6.0156s-6-2.6992-6-6.0156V98.0189   c0-3.3164,2.6916-6.0156,6-6.0156s6,2.6992,6,6.0156V153.9877z"/></g></svg>