<?xml version="1.0" ?><svg enable-background="new 0 0 64 64" height="64px" version="1.1" viewBox="0 0 64 64" width="64px" xml:space="preserve" xmlns="http://www.w3.org/2000/svg" xmlns:xlink="http://www.w3.org/1999/xlink"><g id="_x31_-Call"/><g id="_x32_-24_Hours_Call"/><g id="_x33_-Sending_Call"/><g id="_x34_-Incoming_Call"/><g id="_x35_-Talk_On_Phone"/><g id="_x36_-Block_Call"/><g id="_x37_-Hold_Call"/><g id="_x38_-Mute_Call"/><g id="_x39_-Phone_Book"/><g id="_x31_0-Add_Contact"/><g id="_x31_1-Delete_Contact"/><g id="_x31_2-Mail"/><g id="_x31_3-Message_Read"/><g id="_x31_4-Email"/><g id="_x31_5-Send_Mail"/><g id="_x31_6-Important_Mail"/><g id="_x31_7-Mail_Chain"/><g id="_x31_8-Messaging"/><g id="_x31_9-Sending"/><g id="_x32_0-Chat"/><g id="_x32_1-Mail_Attachment"/><g id="_x32_2-Mobile_Link"/><g id="_x32_3-Smartphone"/><g id="_x32_4-Social_Media"/><g id="_x32_5-Support"/><g id="_x32_6-Links"/><g id="_x32_7-Phone"/><g id="_x32_8-Phone-2"/><g id="_x32_9-Map"/><g id="_x33_0-Location"/><g id="_x33_1-Write"/><g id="_x33_2-World"/><g id="_x33_3-Home"/><g id="_x33_4-Calendar"/><g id="_x33_5-Website"/><g id="_x33_6-Info"/><g id="_x33_7-Bull_Horn"/><g id="_x33_8-Profile"/><g id="_x33_9-Quote__x26__Answer"/><g id="_x34_0-Notification"/><g id="_x34_1-Share"><g><path d="M44,7H20c-2.7568359,0-5,2.2431641-5,5v40c0,2.7568359,2.2431641,5,5,5h24c2.7568359,0,5-2.2431641,5-5V12    C49,9.2431641,46.7568359,7,44,7z M45,49c0,0.5527344-0.4477539,1-1,1H20c-0.5522461,0-1-0.4472656-1-1V15    c0-0.5527344,0.4477539-1,1-1h24c0.5522461,0,1,0.4472656,1,1V49z"/><path d="M37,30.5c2.2055664,0,4-1.7939453,4-4s-1.7944336-4-4-4s-4,1.7939453-4,4    c0,0.3197632,0.0474854,0.626709,0.1186523,0.9249268l-3.3060303,1.7359009C29.0894165,28.4443359,28.0960693,28,27,28    c-2.2055664,0-4,1.7939453-4,4s1.7944336,4,4,4c1.100647,0,2.0985107-0.4471436,2.8225098-1.1689453l3.2996826,1.7325439    C33.0491943,36.8654175,33,37.1760254,33,37.5c0,2.2060547,1.7944336,4,4,4s4-1.7939453,4-4s-1.7944336-4-4-4    c-1.1621704,0-2.2009277,0.5062866-2.9324341,1.300354l-3.2403564-1.701416C30.9284668,32.7474365,31,32.383667,31,32    c0-0.3878784-0.072876-0.7554932-0.1763306-1.1104126l3.2362061-1.6992188C34.791748,29.989624,35.8334961,30.5,37,30.5z"/></g></g><g id="_x34_2-Time"/></svg>